# xmcd
#
# Track frame offsets:
#	150
#	15184
#	33072
#	49702
#	65222
#	84440
#	102687
#	118250
#	138872
#	153360
#	169897
#
# Disc length: 2496 seconds
#
# Revision: 1
# Processed by: cddbd v1.5.2PL0 Copyright (c) Steve Scherf et al.
# Submitted via: audiograbber 1.83.01
#
DISCID=8a09be0b
DTITLE=Rick Stanley and Lookout Mountain - Country Ambassadors
DYEAR=1997
DGENRE=Country
TTITLE0=Lookout Heart!!
TTITLE1=Jack Daniel's Daze
TTITLE2=Lyin' King
TTITLE3=Back in the Dohouse Again
TTITLE4=The Cotton-Eyed Joe
TTITLE5=Brothers in the Country
TTITLE6=Three Heartaches for a Quarter
TTITLE7=Candlelight and Wine
TTITLE8=She broke my Heart
TTITLE9=Gospel Medley
TTITLE10=The Country Hokey Pokey
EXTD=
EXTT0=
EXTT1=
EXTT2=
EXTT3=
EXTT4=
EXTT5=
EXTT6=
EXTT7=
EXTT8=
EXTT9=
EXTT10=
PLAYORDER=
